<svg width="1000" height="250" viewBox="0 0 1000 250" fill="none" xmlns="http://www.w3.org/2000/svg">
<rect width="1000" height="250" fill="black"/>
<path d="M120.189 56.0539C118.966 56.2146 118.07 56.9392 117.162 57.7383C116.497 58.3244 115.842 58.9208 115.207 59.5401C112.23 62.4443 109.221 65.3305 106.346 68.3378C104.796 69.9584 103.171 71.5135 101.586 73.0991C98.9533 75.7315 96.3356 78.3805 93.7027 81.0135C86.902 87.8142 80.1322 94.6471 73.3333 101.446C70.0956 104.684 66.8269 107.889 63.5901 111.126C62.7499 111.966 61.9014 112.816 61.156 113.743C60.7791 114.212 60.3708 114.758 60.3436 115.383C60.3026 116.326 60.7752 117.117 61.3239 117.842C62.1596 118.946 63.1489 119.955 64.1261 120.932C67.0269 123.833 69.9533 126.711 72.8604 129.604C73.8462 130.585 74.8608 131.534 75.8559 132.505C76.4132 133.049 76.9892 133.749 77.6532 134.161C79.0451 135.025 80.5937 134.175 81.6577 133.239C83.4464 131.664 85.123 129.943 86.8288 128.279C87.3891 127.732 87.9129 127.135 88.5 126.617C89.463 125.768 90.3241 124.793 91.2432 123.897C93.2058 121.982 95.1374 120.034 97.0766 118.095C102.122 113.049 107.199 108.036 112.243 102.991C114.22 101.015 116.259 99.1016 118.234 97.1261C118.734 96.6263 119.261 96.1531 119.779 95.6728C119.91 95.5517 120.203 95.18 120.397 95.1894C120.594 95.1992 120.904 95.5763 121.041 95.7075C121.56 96.2076 122.107 96.6799 122.617 97.1892C124.594 99.1634 126.632 101.078 128.608 103.054C136.37 110.816 144.18 118.531 151.941 126.293C154.138 128.49 156.398 130.624 158.595 132.82C159.506 133.731 160.769 135.013 162.189 134.829C162.747 134.756 163.172 134.225 163.577 133.874C164.645 132.947 165.607 131.903 166.667 130.969C168.577 129.283 170.351 127.401 172.153 125.599C173.958 123.795 175.834 122.027 177.523 120.113C178.595 118.896 180.028 117.34 179.907 115.572C179.878 115.151 179.716 114.757 179.55 114.374C178.493 111.945 176.325 110.139 174.455 108.35C171.82 105.83 169.277 103.204 166.698 100.626C160.676 94.6039 154.622 88.6129 148.599 82.5901C146.365 80.3563 144.116 78.1386 141.883 75.9054C140.439 74.4614 139.025 72.9744 137.532 71.5828C136.272 70.4093 135.106 69.1306 133.874 67.9284C131.076 65.1994 128.281 62.4616 125.518 59.6982C124.877 59.0568 124.212 58.4389 123.563 57.8058C122.613 56.8787 121.642 55.8631 120.189 56.0539Z" fill="#FFCD03"/>
<path d="M120.221 63.6435C120.071 63.6895 119.953 63.8494 119.842 63.9521C119.564 64.2108 119.291 64.4746 119.023 64.7432C118.129 65.637 117.202 66.4978 116.339 67.4234C113.559 70.4086 110.588 73.241 107.703 76.1261C98.4914 85.3373 89.3245 94.5989 80.1126 103.811C77.4426 106.481 74.8359 109.214 72.1667 111.883C71.3517 112.698 70.5653 113.541 69.769 114.374C69.4362 114.722 68.845 115.152 68.6622 115.604C68.5295 115.931 68.7749 116.294 68.9513 116.55C69.4193 117.227 70.0344 117.802 70.5847 118.41C72.4584 120.481 74.5008 122.407 76.4865 124.369C76.9896 124.867 77.5025 125.352 78.0315 125.821C78.295 126.055 78.6376 126.358 79.009 126.384C79.3873 126.411 79.7061 126.094 79.9549 125.852C80.4765 125.344 81.0167 124.853 81.5315 124.338C83.6757 122.194 85.851 120.081 87.9955 117.937C95.9307 110.002 103.892 102.09 111.833 94.1622C113.761 92.2378 115.699 90.2917 117.793 88.547C118.737 87.7603 119.849 86.8721 121.167 87.1095C121.484 87.1666 121.791 87.5194 122.018 87.7304C122.568 88.2424 123.115 88.7545 123.658 89.2735C125.677 91.2048 127.672 93.1629 129.649 95.1396C137.068 102.559 144.521 109.949 151.941 117.369C154.348 119.776 156.819 122.121 159.225 124.527C159.72 125.021 160.238 125.49 160.739 125.978C161.116 126.346 161.46 126.733 162.032 126.563C162.565 126.404 163 125.935 163.361 125.536C163.759 125.096 164.167 124.662 164.586 124.243C166.509 122.32 168.433 120.398 170.356 118.473C170.925 117.903 171.498 117.311 171.995 116.676C172.247 116.354 172.479 115.991 172.35 115.572C172.14 114.892 171.433 114.293 170.923 113.832C170.258 113.23 169.657 112.555 169 111.943C166.564 109.674 164.26 107.237 161.905 104.883C152.862 95.8393 143.801 86.8103 134.757 77.7658C131.141 74.1499 127.584 70.473 123.973 66.8559C123.095 65.9765 122.212 65.09 121.261 64.2889C121.053 64.1136 120.524 63.5505 120.221 63.6435Z" fill="#010101"/>
<path d="M119.905 115.775C119.396 115.843 118.904 116.177 118.486 116.455C117.443 117.15 116.613 118.052 115.712 118.913C112.716 121.778 109.783 124.717 106.851 127.649C95.6324 138.868 84.3646 150.041 73.1441 161.261C69.9592 164.446 66.8063 167.662 63.6216 170.847C62.991 171.477 62.3762 172.126 61.76 172.77C61.091 173.47 60.3881 174.213 60.3436 175.23C60.2818 176.641 61.0973 177.737 61.9734 178.761C62.6407 179.541 63.3376 180.306 64.0631 181.032C66.8173 183.786 69.5681 186.542 72.3559 189.262C73.3517 190.233 74.3513 191.203 75.3829 192.136C76.0622 192.751 76.7035 193.405 77.4955 193.877C78.2217 194.31 79.2611 194.603 80.0811 194.233C80.8738 193.876 81.5059 193.094 82.1306 192.512C84.2975 190.494 86.2732 188.258 88.4685 186.271C89.673 185.181 90.7882 183.978 91.9369 182.829C93.7913 180.974 95.663 179.134 97.518 177.279C102.379 172.418 107.288 167.604 112.149 162.743C114.145 160.747 116.163 158.765 118.203 156.814C118.721 156.318 119.21 155.786 119.748 155.311C119.904 155.173 120.119 154.873 120.347 154.877C120.597 154.882 120.861 155.145 121.041 155.294C121.557 155.723 122.02 156.205 122.523 156.649C124.666 158.539 126.619 160.691 128.64 162.712C132.853 166.925 137.102 171.113 141.219 175.419C144.761 179.122 148.271 182.843 151.941 186.424C154.034 188.465 156.105 190.523 158.216 192.542C159.357 193.633 160.506 194.801 162.221 194.554C163.211 194.412 163.82 193.765 164.523 193.111C165.382 192.311 166.246 191.511 167.077 190.68C170.588 187.169 174.29 183.81 177.613 180.117C178.376 179.27 179.275 178.357 179.634 177.248C179.794 176.756 179.815 176.247 179.815 175.734C179.815 175.309 179.817 174.873 179.649 174.473C179.379 173.831 178.863 173.395 178.399 172.896C177.608 172.048 176.772 171.244 175.97 170.405C173.105 167.41 170.165 164.476 167.234 161.545C157.455 151.766 147.722 141.938 137.941 132.158C133.726 127.942 129.473 123.765 125.234 119.577C124.18 118.535 123.116 117.473 121.955 116.55C121.531 116.212 121.082 116.044 120.568 115.897C120.362 115.838 120.122 115.747 119.905 115.775Z" fill="#FFCD03"/>
<path d="M120.347 123.761C119.869 123.916 119.389 124.507 119.023 124.837C118.038 125.723 117.058 126.618 116.122 127.554C113.121 130.554 110.041 133.477 107.041 136.477C102.217 141.301 97.3626 146.099 92.5994 150.982C88.4991 155.185 84.4659 159.453 80.3644 163.658C78.8702 165.189 77.3374 166.685 75.8243 168.198C74.8283 169.194 73.8595 170.231 72.8288 171.191C71.9533 172.007 71.119 172.866 70.2432 173.682C69.7655 174.127 69.1324 174.536 68.833 175.135C68.2557 176.29 69.483 177.396 70.1778 178.162C72.1976 180.389 74.4259 182.408 76.5496 184.532C77.1727 185.155 77.7736 185.821 78.4414 186.396C78.6226 186.552 78.9367 186.911 79.1982 186.906C79.4164 186.901 79.6568 186.564 79.7973 186.423L81.3108 184.91C83.3083 182.912 85.2737 180.884 87.2703 178.887C92.5676 173.59 97.833 168.261 103.162 162.995C105.805 160.384 108.391 157.71 111.077 155.143C113.351 152.968 115.6 150.747 117.824 148.523C118.366 147.981 118.935 147.467 119.496 146.945C119.745 146.713 120.105 146.426 120.473 146.488C120.874 146.555 121.228 146.822 121.545 147.06C122.178 147.536 122.771 148.069 123.342 148.616C125.233 150.423 127.064 152.294 128.955 154.102C133.587 158.532 138.041 163.167 142.545 167.725C144.833 170.041 147.171 172.31 149.42 174.662C150.096 175.369 150.838 176.018 151.495 176.743C153.928 179.433 156.598 181.936 159.162 184.5C159.786 185.123 160.42 185.742 161.086 186.32C161.275 186.485 161.59 186.859 161.874 186.774C162.209 186.675 162.517 186.347 162.757 186.108C163.283 185.582 163.746 184.996 164.27 184.468C166.222 182.508 168.231 180.61 170.198 178.667C170.799 178.073 171.414 177.487 171.955 176.838C172.127 176.631 172.45 176.282 172.379 175.986C172.29 175.613 171.904 175.26 171.662 174.977C171.013 174.22 170.304 173.507 169.599 172.802C167.247 170.45 164.869 168.109 162.602 165.676C158.575 161.352 154.393 157.172 150.239 152.968C145.178 147.846 140.102 142.737 135.009 137.644C131.421 134.056 127.814 130.481 124.225 126.892C123.361 126.028 122.499 125.126 121.577 124.325C121.287 124.073 120.786 123.618 120.347 123.761Z" fill="#010101"/>
<path d="M247.066 138.094V144H227.051V138.094H247.066ZM229.32 104.188V144H221.801V104.188H229.32ZM250.766 129.508V128.934C250.766 126.764 251.076 124.768 251.695 122.945C252.315 121.104 253.217 119.509 254.402 118.16C255.587 116.811 257.036 115.763 258.75 115.016C260.464 114.25 262.414 113.867 264.602 113.867C266.826 113.867 268.794 114.25 270.508 115.016C272.24 115.763 273.698 116.811 274.883 118.16C276.068 119.509 276.97 121.104 277.59 122.945C278.21 124.768 278.52 126.764 278.52 128.934V129.508C278.52 131.659 278.21 133.655 277.59 135.496C276.97 137.319 276.068 138.914 274.883 140.281C273.698 141.63 272.249 142.678 270.535 143.426C268.822 144.173 266.862 144.547 264.656 144.547C262.469 144.547 260.509 144.173 258.777 143.426C257.046 142.678 255.587 141.63 254.402 140.281C253.217 138.914 252.315 137.319 251.695 135.496C251.076 133.655 250.766 131.659 250.766 129.508ZM257.984 128.934V129.508C257.984 130.802 258.112 132.014 258.367 133.145C258.622 134.275 259.014 135.268 259.543 136.125C260.072 136.982 260.755 137.656 261.594 138.148C262.451 138.622 263.471 138.859 264.656 138.859C265.823 138.859 266.826 138.622 267.664 138.148C268.503 137.656 269.186 136.982 269.715 136.125C270.262 135.268 270.663 134.275 270.918 133.145C271.173 132.014 271.301 130.802 271.301 129.508V128.934C271.301 127.658 271.173 126.464 270.918 125.352C270.663 124.221 270.262 123.228 269.715 122.371C269.186 121.496 268.493 120.812 267.637 120.32C266.798 119.81 265.786 119.555 264.602 119.555C263.435 119.555 262.432 119.81 261.594 120.32C260.755 120.812 260.072 121.496 259.543 122.371C259.014 123.228 258.622 124.221 258.367 125.352C258.112 126.464 257.984 127.658 257.984 128.934ZM303.082 114.414H309.645V143.098C309.645 145.777 309.061 148.047 307.895 149.906C306.746 151.784 305.133 153.206 303.055 154.172C300.977 155.156 298.561 155.648 295.809 155.648C294.624 155.648 293.339 155.484 291.953 155.156C290.586 154.828 289.264 154.309 287.988 153.598C286.73 152.905 285.682 152.003 284.844 150.891L288.098 146.625C289.082 147.773 290.194 148.639 291.434 149.223C292.673 149.824 294.013 150.125 295.453 150.125C296.911 150.125 298.151 149.852 299.172 149.305C300.211 148.776 301.004 147.992 301.551 146.953C302.116 145.932 302.398 144.674 302.398 143.18V121.168L303.082 114.414ZM283.094 129.562V128.988C283.094 126.728 283.367 124.677 283.914 122.836C284.461 120.977 285.245 119.382 286.266 118.051C287.305 116.72 288.553 115.69 290.012 114.961C291.488 114.232 293.147 113.867 294.988 113.867C296.939 113.867 298.579 114.223 299.91 114.934C301.259 115.645 302.371 116.656 303.246 117.969C304.139 119.281 304.832 120.84 305.324 122.645C305.835 124.431 306.227 126.4 306.5 128.551V130.109C306.245 132.206 305.835 134.129 305.27 135.879C304.723 137.629 303.993 139.16 303.082 140.473C302.171 141.767 301.04 142.77 299.691 143.48C298.342 144.191 296.757 144.547 294.934 144.547C293.111 144.547 291.47 144.173 290.012 143.426C288.553 142.678 287.305 141.63 286.266 140.281C285.245 138.932 284.461 137.346 283.914 135.523C283.367 133.701 283.094 131.714 283.094 129.562ZM290.312 128.988V129.562C290.312 130.839 290.44 132.033 290.695 133.145C290.951 134.257 291.342 135.241 291.871 136.098C292.4 136.936 293.065 137.592 293.867 138.066C294.669 138.54 295.626 138.777 296.738 138.777C298.233 138.777 299.454 138.467 300.402 137.848C301.368 137.21 302.098 136.344 302.59 135.25C303.1 134.138 303.428 132.889 303.574 131.504V127.211C303.483 126.117 303.283 125.105 302.973 124.176C302.681 123.246 302.271 122.444 301.742 121.77C301.214 121.095 300.539 120.566 299.719 120.184C298.898 119.801 297.923 119.609 296.793 119.609C295.699 119.609 294.742 119.855 293.922 120.348C293.102 120.822 292.427 121.487 291.898 122.344C291.37 123.201 290.969 124.194 290.695 125.324C290.44 126.454 290.312 127.676 290.312 128.988ZM338.754 114.414V144H331.508V114.414H338.754ZM331.016 106.676C331.016 105.6 331.38 104.707 332.109 103.996C332.857 103.285 333.859 102.93 335.117 102.93C336.375 102.93 337.368 103.285 338.098 103.996C338.845 104.707 339.219 105.6 339.219 106.676C339.219 107.733 338.845 108.617 338.098 109.328C337.368 110.039 336.375 110.395 335.117 110.395C333.859 110.395 332.857 110.039 332.109 109.328C331.38 108.617 331.016 107.733 331.016 106.676ZM353.227 120.73V144H346.008V114.414H352.789L353.227 120.73ZM352.078 128.141H349.945C349.964 125.99 350.255 124.039 350.82 122.289C351.385 120.539 352.178 119.035 353.199 117.777C354.238 116.52 355.469 115.553 356.891 114.879C358.312 114.204 359.898 113.867 361.648 113.867C363.07 113.867 364.355 114.068 365.504 114.469C366.652 114.87 367.637 115.508 368.457 116.383C369.296 117.258 369.934 118.406 370.371 119.828C370.827 121.232 371.055 122.964 371.055 125.023V144H363.781V124.969C363.781 123.62 363.581 122.553 363.18 121.77C362.797 120.986 362.232 120.43 361.484 120.102C360.755 119.773 359.853 119.609 358.777 119.609C357.665 119.609 356.69 119.837 355.852 120.293C355.031 120.73 354.339 121.341 353.773 122.125C353.227 122.909 352.807 123.811 352.516 124.832C352.224 125.853 352.078 126.956 352.078 128.141ZM400.602 136.891L407.082 114.414H411.676L410.309 122.18L403.773 144H399.809L400.602 136.891ZM397.02 114.414L401.887 136.945L402.324 144H397.758L389.992 114.414H397.02ZM417.691 136.617L422.449 114.414H429.449L421.738 144H417.172L417.691 136.617ZM412.387 114.414L418.812 136.672L419.66 144H415.695L409.105 122.18L407.766 114.414H412.387ZM441.871 114.414V144H434.625V114.414H441.871ZM434.133 106.676C434.133 105.6 434.497 104.707 435.227 103.996C435.974 103.285 436.977 102.93 438.234 102.93C439.492 102.93 440.486 103.285 441.215 103.996C441.962 104.707 442.336 105.6 442.336 106.676C442.336 107.733 441.962 108.617 441.215 109.328C440.486 110.039 439.492 110.395 438.234 110.395C436.977 110.395 435.974 110.039 435.227 109.328C434.497 108.617 434.133 107.733 434.133 106.676ZM463.262 114.414V119.609H446.309V114.414H463.262ZM450.848 107.141H458.094V135.469C458.094 136.344 458.212 137.018 458.449 137.492C458.686 137.966 459.042 138.285 459.516 138.449C459.99 138.613 460.555 138.695 461.211 138.695C461.685 138.695 462.122 138.668 462.523 138.613C462.924 138.559 463.262 138.504 463.535 138.449L463.562 143.863C462.961 144.064 462.277 144.228 461.512 144.355C460.764 144.483 459.917 144.547 458.969 144.547C457.346 144.547 455.924 144.273 454.703 143.727C453.482 143.161 452.534 142.259 451.859 141.02C451.185 139.762 450.848 138.103 450.848 136.043V107.141ZM475.656 102V144H468.41V102H475.656ZM474.508 128.141H472.375C472.375 126.081 472.648 124.185 473.195 122.453C473.742 120.721 474.517 119.217 475.52 117.941C476.522 116.647 477.716 115.645 479.102 114.934C480.505 114.223 482.055 113.867 483.75 113.867C485.208 113.867 486.53 114.077 487.715 114.496C488.918 114.897 489.948 115.544 490.805 116.438C491.661 117.331 492.318 118.497 492.773 119.938C493.247 121.359 493.484 123.091 493.484 125.133V144H486.211V125.078C486.211 123.711 486.01 122.635 485.609 121.852C485.208 121.049 484.634 120.475 483.887 120.129C483.158 119.783 482.255 119.609 481.18 119.609C480.013 119.609 479.01 119.837 478.172 120.293C477.333 120.73 476.641 121.341 476.094 122.125C475.565 122.909 475.164 123.811 474.891 124.832C474.635 125.853 474.508 126.956 474.508 128.141ZM538.645 130.902H546.164C545.964 133.564 545.225 135.924 543.949 137.984C542.673 140.026 540.896 141.63 538.617 142.797C536.339 143.964 533.577 144.547 530.332 144.547C527.835 144.547 525.583 144.109 523.578 143.234C521.591 142.341 519.887 141.074 518.465 139.434C517.061 137.775 515.986 135.788 515.238 133.473C514.491 131.139 514.117 128.523 514.117 125.625V122.59C514.117 119.691 514.5 117.076 515.266 114.742C516.031 112.409 517.125 110.422 518.547 108.781C519.987 107.122 521.71 105.846 523.715 104.953C525.738 104.06 527.999 103.613 530.496 103.613C533.741 103.613 536.484 104.215 538.727 105.418C540.969 106.603 542.71 108.234 543.949 110.312C545.189 112.391 545.936 114.779 546.191 117.477H538.672C538.526 115.799 538.161 114.378 537.578 113.211C537.013 112.044 536.156 111.16 535.008 110.559C533.878 109.939 532.374 109.629 530.496 109.629C529.038 109.629 527.753 109.902 526.641 110.449C525.547 110.996 524.635 111.816 523.906 112.91C523.177 113.986 522.63 115.335 522.266 116.957C521.901 118.561 521.719 120.421 521.719 122.535V125.625C521.719 127.648 521.883 129.462 522.211 131.066C522.539 132.671 523.049 134.029 523.742 135.141C524.435 136.253 525.328 137.1 526.422 137.684C527.516 138.267 528.819 138.559 530.332 138.559C532.173 138.559 533.668 138.267 534.816 137.684C535.983 137.1 536.867 136.243 537.469 135.113C538.089 133.983 538.48 132.579 538.645 130.902ZM568.238 137.711V124.066C568.238 123.064 568.065 122.198 567.719 121.469C567.372 120.74 566.844 120.174 566.133 119.773C565.422 119.372 564.52 119.172 563.426 119.172C562.46 119.172 561.612 119.336 560.883 119.664C560.172 119.992 559.625 120.457 559.242 121.059C558.859 121.642 558.668 122.316 558.668 123.082H551.422C551.422 121.861 551.714 120.703 552.297 119.609C552.88 118.497 553.71 117.513 554.785 116.656C555.879 115.781 557.182 115.098 558.695 114.605C560.227 114.113 561.94 113.867 563.836 113.867C566.078 113.867 568.074 114.25 569.824 115.016C571.592 115.763 572.978 116.893 573.98 118.406C575.001 119.919 575.512 121.824 575.512 124.121V137.027C575.512 138.504 575.603 139.771 575.785 140.828C575.986 141.867 576.277 142.77 576.66 143.535V144H569.305C568.958 143.253 568.694 142.305 568.512 141.156C568.329 139.99 568.238 138.841 568.238 137.711ZM569.25 125.98L569.305 130.273H564.738C563.608 130.273 562.615 130.392 561.758 130.629C560.901 130.848 560.199 131.176 559.652 131.613C559.105 132.033 558.695 132.543 558.422 133.145C558.148 133.728 558.012 134.393 558.012 135.141C558.012 135.87 558.176 136.526 558.504 137.109C558.85 137.693 559.342 138.158 559.98 138.504C560.637 138.832 561.402 138.996 562.277 138.996C563.553 138.996 564.665 138.741 565.613 138.23C566.561 137.702 567.299 137.064 567.828 136.316C568.357 135.569 568.639 134.858 568.676 134.184L570.754 137.301C570.499 138.048 570.116 138.841 569.605 139.68C569.095 140.518 568.439 141.302 567.637 142.031C566.835 142.76 565.868 143.362 564.738 143.836C563.608 144.31 562.296 144.547 560.801 144.547C558.887 144.547 557.173 144.164 555.66 143.398C554.147 142.633 552.953 141.585 552.078 140.254C551.203 138.923 550.766 137.41 550.766 135.715C550.766 134.147 551.057 132.762 551.641 131.559C552.224 130.355 553.09 129.344 554.238 128.523C555.387 127.685 556.809 127.056 558.504 126.637C560.217 126.199 562.177 125.98 564.383 125.98H569.25ZM600.266 137.711V102H607.539V144H600.977L600.266 137.711ZM581.262 129.562V128.988C581.262 126.728 581.517 124.677 582.027 122.836C582.556 120.977 583.322 119.382 584.324 118.051C585.327 116.72 586.539 115.69 587.961 114.961C589.401 114.232 591.033 113.867 592.855 113.867C594.624 113.867 596.164 114.223 597.477 114.934C598.807 115.645 599.938 116.656 600.867 117.969C601.815 119.281 602.572 120.84 603.137 122.645C603.702 124.431 604.112 126.4 604.367 128.551V130.109C604.112 132.206 603.702 134.129 603.137 135.879C602.572 137.629 601.815 139.16 600.867 140.473C599.938 141.767 598.807 142.77 597.477 143.48C596.146 144.191 594.587 144.547 592.801 144.547C590.996 144.547 589.374 144.173 587.934 143.426C586.512 142.678 585.299 141.63 584.297 140.281C583.312 138.932 582.556 137.346 582.027 135.523C581.517 133.701 581.262 131.714 581.262 129.562ZM588.508 128.988V129.562C588.508 130.839 588.617 132.033 588.836 133.145C589.055 134.257 589.41 135.241 589.902 136.098C590.395 136.936 591.023 137.592 591.789 138.066C592.573 138.54 593.521 138.777 594.633 138.777C596.055 138.777 597.221 138.467 598.133 137.848C599.062 137.21 599.783 136.344 600.293 135.25C600.803 134.138 601.132 132.889 601.277 131.504V127.211C601.204 126.117 601.013 125.105 600.703 124.176C600.411 123.246 599.992 122.444 599.445 121.77C598.917 121.095 598.26 120.566 597.477 120.184C596.693 119.801 595.763 119.609 594.688 119.609C593.576 119.609 592.628 119.855 591.844 120.348C591.06 120.822 590.422 121.487 589.93 122.344C589.438 123.201 589.073 124.194 588.836 125.324C588.617 126.454 588.508 127.676 588.508 128.988ZM627.863 144.547C625.621 144.547 623.607 144.182 621.82 143.453C620.034 142.724 618.512 141.712 617.254 140.418C616.014 139.105 615.057 137.583 614.383 135.852C613.727 134.102 613.398 132.224 613.398 130.219V129.125C613.398 126.846 613.727 124.777 614.383 122.918C615.039 121.04 615.969 119.427 617.172 118.078C618.375 116.729 619.815 115.69 621.492 114.961C623.169 114.232 625.02 113.867 627.043 113.867C629.139 113.867 630.99 114.223 632.594 114.934C634.198 115.626 635.538 116.611 636.613 117.887C637.689 119.163 638.5 120.694 639.047 122.48C639.594 124.249 639.867 126.208 639.867 128.359V131.395H616.68V126.418H632.758V125.871C632.721 124.723 632.503 123.674 632.102 122.727C631.701 121.76 631.081 120.995 630.242 120.43C629.404 119.846 628.319 119.555 626.988 119.555C625.913 119.555 624.974 119.792 624.172 120.266C623.388 120.721 622.732 121.378 622.203 122.234C621.693 123.073 621.31 124.076 621.055 125.242C620.799 126.409 620.672 127.703 620.672 129.125V130.219C620.672 131.458 620.836 132.607 621.164 133.664C621.51 134.721 622.012 135.642 622.668 136.426C623.342 137.191 624.145 137.793 625.074 138.23C626.022 138.65 627.098 138.859 628.301 138.859C629.814 138.859 631.181 138.568 632.402 137.984C633.642 137.383 634.717 136.499 635.629 135.332L639.266 139.105C638.646 140.017 637.807 140.892 636.75 141.73C635.711 142.569 634.453 143.253 632.977 143.781C631.5 144.292 629.796 144.547 627.863 144.547ZM659.207 114.414V119.609H642.254V114.414H659.207ZM646.793 107.141H654.039V135.469C654.039 136.344 654.158 137.018 654.395 137.492C654.632 137.966 654.987 138.285 655.461 138.449C655.935 138.613 656.5 138.695 657.156 138.695C657.63 138.695 658.068 138.668 658.469 138.613C658.87 138.559 659.207 138.504 659.48 138.449L659.508 143.863C658.906 144.064 658.223 144.228 657.457 144.355C656.71 144.483 655.862 144.547 654.914 144.547C653.292 144.547 651.87 144.273 650.648 143.727C649.427 143.161 648.479 142.259 647.805 141.02C647.13 139.762 646.793 138.103 646.793 136.043V107.141ZM672.039 120.895H676.113C677.553 120.895 678.738 120.648 679.668 120.156C680.616 119.646 681.318 118.953 681.773 118.078C682.247 117.185 682.484 116.155 682.484 114.988C682.484 113.84 682.275 112.846 681.855 112.008C681.436 111.151 680.798 110.495 679.941 110.039C679.103 109.565 678.027 109.328 676.715 109.328C675.658 109.328 674.682 109.538 673.789 109.957C672.914 110.376 672.212 110.978 671.684 111.762C671.173 112.527 670.918 113.448 670.918 114.523H663.672C663.672 112.372 664.237 110.486 665.367 108.863C666.516 107.223 668.065 105.938 670.016 105.008C671.966 104.078 674.145 103.613 676.551 103.613C679.176 103.613 681.473 104.051 683.441 104.926C685.428 105.783 686.969 107.049 688.062 108.727C689.174 110.404 689.73 112.482 689.73 114.961C689.73 116.146 689.448 117.331 688.883 118.516C688.336 119.682 687.525 120.74 686.449 121.688C685.392 122.617 684.089 123.374 682.539 123.957C681.008 124.522 679.249 124.805 677.262 124.805H672.039V120.895ZM672.039 126.473V122.617H677.262C679.504 122.617 681.445 122.882 683.086 123.41C684.745 123.921 686.112 124.65 687.188 125.598C688.263 126.527 689.056 127.612 689.566 128.852C690.095 130.091 690.359 131.422 690.359 132.844C690.359 134.703 690.013 136.362 689.32 137.82C688.628 139.26 687.652 140.482 686.395 141.484C685.155 142.487 683.697 143.253 682.02 143.781C680.342 144.292 678.529 144.547 676.578 144.547C674.883 144.547 673.233 144.319 671.629 143.863C670.043 143.389 668.612 142.688 667.336 141.758C666.06 140.81 665.048 139.625 664.301 138.203C663.553 136.763 663.18 135.095 663.18 133.199H670.426C670.426 134.293 670.69 135.268 671.219 136.125C671.766 136.982 672.513 137.656 673.461 138.148C674.427 138.622 675.512 138.859 676.715 138.859C678.046 138.859 679.185 138.622 680.133 138.148C681.099 137.656 681.837 136.964 682.348 136.07C682.858 135.159 683.113 134.074 683.113 132.816C683.113 131.322 682.831 130.109 682.266 129.18C681.701 128.25 680.889 127.566 679.832 127.129C678.793 126.691 677.553 126.473 676.113 126.473H672.039ZM716.727 103.859H717.711V109.684H717.246C715.04 109.684 713.099 110.021 711.422 110.695C709.763 111.37 708.378 112.318 707.266 113.539C706.172 114.742 705.342 116.173 704.777 117.832C704.212 119.473 703.93 121.268 703.93 123.219V129.672C703.93 131.185 704.085 132.516 704.395 133.664C704.723 134.794 705.169 135.751 705.734 136.535C706.318 137.301 706.992 137.875 707.758 138.258C708.542 138.641 709.398 138.832 710.328 138.832C711.258 138.832 712.096 138.641 712.844 138.258C713.591 137.875 714.229 137.337 714.758 136.645C715.305 135.934 715.715 135.104 715.988 134.156C716.28 133.208 716.426 132.169 716.426 131.039C716.426 129.927 716.289 128.897 716.016 127.949C715.742 127.001 715.341 126.172 714.812 125.461C714.284 124.732 713.628 124.176 712.844 123.793C712.078 123.392 711.203 123.191 710.219 123.191C708.943 123.191 707.803 123.492 706.801 124.094C705.798 124.677 705.005 125.443 704.422 126.391C703.839 127.339 703.52 128.341 703.465 129.398L701.031 128.195C701.122 126.646 701.451 125.224 702.016 123.93C702.599 122.635 703.374 121.505 704.34 120.539C705.324 119.573 706.482 118.826 707.812 118.297C709.161 117.768 710.656 117.504 712.297 117.504C714.193 117.504 715.852 117.868 717.273 118.598C718.695 119.309 719.871 120.284 720.801 121.523C721.749 122.763 722.46 124.194 722.934 125.816C723.408 127.421 723.645 129.116 723.645 130.902C723.645 132.816 723.335 134.603 722.715 136.262C722.113 137.921 721.238 139.37 720.09 140.609C718.941 141.849 717.556 142.815 715.934 143.508C714.311 144.201 712.488 144.547 710.465 144.547C708.332 144.547 706.418 144.146 704.723 143.344C703.046 142.542 701.605 141.43 700.402 140.008C699.199 138.586 698.279 136.927 697.641 135.031C697.003 133.135 696.684 131.085 696.684 128.879V125.98C696.684 122.863 697.112 119.965 697.969 117.285C698.826 114.605 700.092 112.263 701.77 110.258C703.465 108.234 705.561 106.667 708.059 105.555C710.556 104.424 713.445 103.859 716.727 103.859ZM736.285 125.68L730.516 124.285L732.73 104.188H754.633V110.176H738.719L737.68 119.473C738.245 119.126 739.065 118.78 740.141 118.434C741.234 118.069 742.465 117.887 743.832 117.887C745.728 117.887 747.423 118.197 748.918 118.816C750.413 119.418 751.68 120.293 752.719 121.441C753.776 122.59 754.569 123.993 755.098 125.652C755.645 127.293 755.918 129.152 755.918 131.23C755.918 133.053 755.645 134.767 755.098 136.371C754.569 137.957 753.758 139.37 752.664 140.609C751.57 141.831 750.194 142.797 748.535 143.508C746.876 144.201 744.926 144.547 742.684 144.547C740.988 144.547 739.357 144.301 737.789 143.809C736.24 143.298 734.845 142.56 733.605 141.594C732.366 140.609 731.372 139.406 730.625 137.984C729.896 136.562 729.495 134.931 729.422 133.09H736.559C736.686 134.311 737.014 135.35 737.543 136.207C738.072 137.064 738.764 137.72 739.621 138.176C740.496 138.632 741.508 138.859 742.656 138.859C743.695 138.859 744.589 138.668 745.336 138.285C746.102 137.884 746.73 137.328 747.223 136.617C747.715 135.906 748.079 135.068 748.316 134.102C748.553 133.135 748.672 132.078 748.672 130.93C748.672 129.818 748.535 128.806 748.262 127.895C747.988 126.965 747.569 126.163 747.004 125.488C746.439 124.814 745.728 124.294 744.871 123.93C744.033 123.565 743.048 123.383 741.918 123.383C740.405 123.383 739.238 123.611 738.418 124.066C737.616 124.522 736.905 125.06 736.285 125.68Z" fill="#FFCC02"/>
</svg>
