<svg width="1008" height="258" viewBox="0 0 1008 258" fill="none" xmlns="http://www.w3.org/2000/svg">
  <g filter="url(#a)">
    <path fill="#000" d="M4 0h1000v250H4z"/>
    <path d="M124.189 56.054c-1.223.16-2.119.885-3.027 1.684a52.667 52.667 0 0 0-1.955 1.802c-2.977 2.904-5.986 5.79-8.861 8.798-1.55 1.62-3.175 3.176-4.76 4.761-2.633 2.632-5.25 5.281-7.883 7.914-6.801 6.801-13.57 13.634-20.37 20.433-3.237 3.238-6.506 6.443-9.743 9.68-.84.84-1.689 1.69-2.434 2.617-.377.469-.785 1.015-.812 1.64-.041.943.431 1.734.98 2.459.836 1.104 1.825 2.113 2.802 3.09 2.9 2.901 5.827 5.779 8.734 8.672.986.981 2 1.93 2.996 2.901.557.544 1.133 1.244 1.797 1.656 1.392.864 2.94.014 4.005-.922 1.788-1.575 3.465-3.296 5.17-4.96.561-.547 1.085-1.144 1.672-1.662.963-.849 1.824-1.824 2.743-2.72 1.963-1.915 3.894-3.863 5.834-5.802 5.045-5.046 10.122-10.059 15.166-15.104 1.977-1.976 4.016-3.89 5.991-5.865.5-.5 1.027-.973 1.545-1.453.131-.121.424-.493.618-.484.197.01.507.387.644.519.519.5 1.066.972 1.576 1.481 1.977 1.974 4.015 3.889 5.991 5.865 7.762 7.762 15.572 15.477 23.333 23.239 2.197 2.197 4.457 4.331 6.654 6.527.911.911 2.174 2.193 3.594 2.009.558-.073.983-.604 1.388-.955 1.068-.927 2.03-1.971 3.09-2.905 1.91-1.686 3.684-3.568 5.486-5.37 1.805-1.804 3.681-3.572 5.37-5.486 1.072-1.217 2.505-2.773 2.384-4.541-.029-.421-.191-.815-.357-1.198-1.057-2.429-3.225-4.235-5.095-6.024-2.635-2.52-5.178-5.146-7.757-7.724-6.022-6.022-12.076-12.013-18.099-18.036-2.234-2.234-4.483-4.451-6.716-6.685-1.444-1.444-2.858-2.93-4.351-4.322-1.26-1.174-2.426-2.452-3.658-3.655a934.476 934.476 0 0 1-8.356-8.23c-.641-.641-1.306-1.26-1.955-1.892-.95-.927-1.921-1.943-3.374-1.752Z" fill="#FFD100"/>
    <path d="M124.221 63.644c-.15.046-.268.205-.379.308-.278.259-.551.523-.819.791-.894.894-1.821 1.755-2.684 2.68-2.78 2.986-5.751 5.818-8.636 8.703-9.212 9.211-18.379 18.473-27.59 27.685-2.67 2.67-5.277 5.403-7.946 8.072-.815.815-1.602 1.658-2.398 2.491-.333.348-.924.778-1.107 1.23-.133.327.113.69.29.946.467.677 1.082 1.252 1.633 1.86 1.873 2.071 3.916 3.997 5.902 5.959.503.498 1.016.983 1.544 1.452.264.234.607.537.978.563.378.027.697-.29.946-.532.522-.508 1.062-.999 1.576-1.514 2.145-2.144 4.32-4.257 6.465-6.401 7.935-7.935 15.896-15.847 23.837-23.775 1.928-1.924 3.866-3.87 5.96-5.615.944-.787 2.056-1.675 3.374-1.438.317.058.624.41.851.621.55.512 1.097 1.024 1.64 1.543a379.068 379.068 0 0 1 5.991 5.867c7.419 7.419 14.872 14.809 22.292 22.229 2.407 2.407 4.878 4.752 7.284 7.158.495.494 1.013.963 1.514 1.451.377.368.721.755 1.293.585.533-.159.968-.628 1.329-1.027.398-.44.806-.874 1.225-1.293 1.923-1.923 3.847-3.845 5.77-5.77.569-.57 1.142-1.162 1.639-1.797.252-.322.484-.685.355-1.104-.21-.68-.917-1.279-1.427-1.74-.665-.602-1.266-1.277-1.923-1.889-2.436-2.269-4.74-4.706-7.095-7.06-9.043-9.044-18.104-18.073-27.148-27.117-3.616-3.616-7.173-7.293-10.784-10.91-.878-.88-1.761-1.766-2.712-2.567-.208-.175-.737-.739-1.04-.645Z" fill="#000"/>
    <path d="M123.905 115.775c-.509.068-1.001.402-1.419.68-1.043.695-1.873 1.597-2.774 2.458-2.996 2.865-5.929 5.804-8.861 8.736-11.219 11.219-22.486 22.392-33.707 33.612-3.185 3.185-6.338 6.401-9.522 9.586-.631.63-1.246 1.279-1.862 1.923-.669.7-1.372 1.443-1.416 2.46-.062 1.411.753 2.507 1.63 3.531.667.78 1.364 1.545 2.09 2.271 2.753 2.754 5.504 5.51 8.292 8.23a111.25 111.25 0 0 0 3.027 2.874c.68.615 1.32 1.269 2.113 1.741.726.433 1.765.726 2.585.356.793-.357 1.425-1.139 2.05-1.721 2.166-2.019 4.142-4.254 6.338-6.241 1.204-1.09 2.32-2.294 3.468-3.442 1.854-1.855 3.726-3.695 5.581-5.55 4.861-4.861 9.77-9.675 14.631-14.536a380.31 380.31 0 0 1 6.054-5.929c.518-.496 1.007-1.029 1.545-1.503.156-.138.371-.438.599-.434.25.005.514.268.694.417.516.429.979.911 1.482 1.354 2.143 1.891 4.096 4.043 6.117 6.064 4.213 4.213 8.462 8.401 12.579 12.707 3.542 3.703 7.052 7.424 10.722 11.005 2.093 2.041 4.164 4.098 6.275 6.118 1.141 1.091 2.29 2.259 4.005 2.012.99-.142 1.599-.789 2.302-1.443.859-.8 1.723-1.6 2.554-2.431 3.511-3.511 7.213-6.87 10.536-10.563.763-.847 1.662-1.76 2.021-2.869.16-.492.181-1.001.181-1.514 0-.425.002-.861-.166-1.261-.27-.642-.786-1.078-1.25-1.577-.791-.848-1.627-1.652-2.429-2.491-2.865-2.995-5.805-5.929-8.736-8.86-9.779-9.779-19.512-19.607-29.293-29.387-4.215-4.216-8.468-8.393-12.707-12.581-1.054-1.042-2.118-2.104-3.279-3.027-.424-.338-.873-.506-1.387-.653-.206-.059-.446-.15-.663-.122Z" fill="#FFD100"/>
    <path d="M124.347 123.761c-.478.155-.958.746-1.324 1.076a75.253 75.253 0 0 0-2.901 2.717c-3.001 3-6.081 5.923-9.081 8.923-4.824 4.824-9.678 9.622-14.442 14.505-4.1 4.203-8.133 8.471-12.235 12.676-1.494 1.531-3.027 3.027-4.54 4.54-.996.996-1.965 2.033-2.995 2.993-.876.816-1.71 1.675-2.586 2.491-.477.445-1.11.854-1.41 1.453-.577 1.155.65 2.261 1.345 3.027 2.02 2.227 4.248 4.246 6.372 6.37.623.623 1.224 1.289 1.891 1.864.182.156.496.515.757.51.218-.005.459-.342.6-.483l1.513-1.513c1.997-1.998 3.963-4.026 5.96-6.023 5.297-5.297 10.562-10.626 15.891-15.892 2.643-2.611 5.229-5.285 7.915-7.852a425.51 425.51 0 0 0 6.747-6.62c.542-.542 1.111-1.056 1.672-1.578.249-.232.609-.519.977-.457.401.067.755.334 1.072.572a20 20 0 0 1 1.797 1.556c1.891 1.807 3.722 3.678 5.613 5.486 4.632 4.43 9.086 9.065 13.59 13.623 2.288 2.316 4.626 4.585 6.875 6.937.676.707 1.418 1.356 2.075 2.081 2.433 2.69 5.103 5.193 7.667 7.757a37.996 37.996 0 0 0 1.924 1.82c.189.165.504.539.788.454.335-.099.643-.427.883-.666.526-.526.989-1.112 1.513-1.64 1.952-1.96 3.961-3.858 5.928-5.801.601-.594 1.216-1.18 1.757-1.829.172-.207.495-.556.424-.852-.089-.373-.475-.726-.717-1.009-.649-.757-1.358-1.47-2.063-2.175-2.352-2.352-4.73-4.693-6.997-7.126-4.027-4.324-8.209-8.504-12.363-12.708a3606.712 3606.712 0 0 0-15.23-15.324c-3.588-3.588-7.195-7.163-10.784-10.752-.864-.864-1.726-1.766-2.648-2.567-.29-.252-.791-.707-1.23-.564Z" fill="#000"/>
    <path d="M251.066 97.594v5.906h-20.015v-5.906h20.015ZM233.32 63.688V103.5h-7.519V63.687h7.519Zm21.446 25.32v-.574c0-2.17.31-4.166.929-5.989.62-1.84 1.522-3.436 2.707-4.785 1.185-1.349 2.634-2.397 4.348-3.144 1.714-.766 3.664-1.149 5.852-1.149 2.224 0 4.192.383 5.906 1.149 1.732.747 3.19 1.795 4.375 3.144 1.185 1.35 2.087 2.944 2.707 4.785.62 1.823.93 3.82.93 5.989v.574c0 2.15-.31 4.147-.93 5.988-.62 1.823-1.522 3.418-2.707 4.785-1.185 1.349-2.634 2.397-4.348 3.145-1.713.747-3.673 1.121-5.879 1.121-2.187 0-4.147-.374-5.879-1.121-1.731-.748-3.19-1.796-4.375-3.145-1.185-1.367-2.087-2.962-2.707-4.785-.619-1.841-.929-3.837-.929-5.988Zm7.218-.574v.574a16.5 16.5 0 0 0 .383 3.636c.255 1.13.647 2.124 1.176 2.981a5.886 5.886 0 0 0 2.051 2.023c.857.474 1.877.711 3.062.711 1.167 0 2.17-.237 3.008-.71a5.886 5.886 0 0 0 2.051-2.024c.547-.857.948-1.85 1.203-2.98a16.5 16.5 0 0 0 .383-3.637v-.574a16 16 0 0 0-.383-3.582c-.255-1.13-.656-2.124-1.203-2.98a5.752 5.752 0 0 0-2.078-2.052c-.839-.51-1.851-.765-3.035-.765-1.167 0-2.17.255-3.008.765a5.815 5.815 0 0 0-2.051 2.051c-.529.857-.921 1.85-1.176 2.98a16 16 0 0 0-.383 3.583Zm45.098-14.52h6.563v28.684c0 2.679-.584 4.949-1.75 6.808-1.149 1.878-2.762 3.3-4.84 4.266-2.078.984-4.494 1.476-7.246 1.476-1.185 0-2.47-.164-3.856-.492a15.593 15.593 0 0 1-3.965-1.558 9.81 9.81 0 0 1-3.144-2.707l3.254-4.266c.984 1.148 2.096 2.014 3.336 2.598 1.239.601 2.579.902 4.019.902 1.458 0 2.698-.273 3.719-.82a5.398 5.398 0 0 0 2.379-2.352c.565-1.021.847-2.279.847-3.773V80.668l.684-6.754Zm-19.988 15.148v-.574c0-2.26.273-4.31.82-6.152.547-1.86 1.331-3.454 2.352-4.785 1.039-1.33 2.287-2.36 3.746-3.09 1.476-.73 3.135-1.094 4.976-1.094 1.951 0 3.591.356 4.922 1.067 1.349.71 2.461 1.722 3.336 3.035.893 1.312 1.586 2.87 2.078 4.675.511 1.787.903 3.756 1.176 5.907v1.558c-.255 2.097-.665 4.02-1.23 5.77-.547 1.75-1.277 3.281-2.188 4.594-.911 1.294-2.042 2.297-3.391 3.007-1.349.711-2.934 1.067-4.757 1.067-1.823 0-3.464-.374-4.922-1.121-1.459-.748-2.707-1.796-3.746-3.145-1.021-1.349-1.805-2.935-2.352-4.758-.547-1.822-.82-3.81-.82-5.96Zm7.218-.574v.575a16 16 0 0 0 .383 3.581c.256 1.112.647 2.097 1.176 2.954.529.838 1.194 1.494 1.996 1.968s1.759.711 2.871.711c1.495 0 2.716-.31 3.664-.93.966-.637 1.696-1.503 2.188-2.597.51-1.112.838-2.36.984-3.746V86.71a12.971 12.971 0 0 0-.601-3.035c-.292-.93-.702-1.732-1.231-2.407a5.452 5.452 0 0 0-2.023-1.585c-.821-.383-1.796-.575-2.926-.575-1.094 0-2.051.247-2.871.739-.82.474-1.495 1.139-2.024 1.996-.528.857-.929 1.85-1.203 2.98a16.633 16.633 0 0 0-.383 3.664Zm48.442-14.574V103.5h-7.246V73.914h7.246Zm-7.738-7.738c0-1.076.364-1.969 1.093-2.68.748-.71 1.75-1.066 3.008-1.066s2.251.355 2.981 1.066c.747.711 1.121 1.604 1.121 2.68 0 1.057-.374 1.941-1.121 2.652-.73.711-1.723 1.066-2.981 1.066-1.258 0-2.26-.355-3.008-1.066-.729-.71-1.093-1.595-1.093-2.652Zm22.211 14.055V103.5h-7.219V73.914h6.781l.438 6.317Zm-1.149 7.41h-2.133c.019-2.151.31-4.102.875-5.852s1.358-3.254 2.379-4.512a10.691 10.691 0 0 1 3.692-2.898c1.421-.675 3.007-1.012 4.757-1.012 1.422 0 2.707.2 3.856.602a7.272 7.272 0 0 1 2.953 1.914c.839.875 1.477 2.023 1.914 3.445.456 1.404.684 3.135.684 5.195V103.5h-7.274V84.469c0-1.35-.2-2.416-.601-3.2-.383-.783-.948-1.34-1.696-1.667-.729-.329-1.631-.493-2.707-.493-1.112 0-2.087.228-2.925.684a6.053 6.053 0 0 0-2.079 1.832c-.546.784-.966 1.686-1.257 2.707-.292 1.02-.438 2.124-.438 3.309Zm48.524 8.75 6.48-22.477h4.594l-1.367 7.766-6.536 21.82h-3.964l.793-7.11Zm-3.582-22.477 4.867 22.531.437 7.055h-4.566l-7.766-29.586h7.028Zm20.671 22.203 4.758-22.203h7l-7.711 29.586h-4.566l.519-7.383Zm-5.304-22.203 6.425 22.258.848 7.328h-3.965l-6.59-21.82-1.339-7.766h4.621Zm29.484 0V103.5h-7.246V73.914h7.246Zm-7.738-7.738c0-1.076.364-1.969 1.094-2.68.747-.71 1.75-1.066 3.007-1.066 1.258 0 2.252.355 2.981 1.066.747.711 1.121 1.604 1.121 2.68 0 1.057-.374 1.941-1.121 2.652-.729.711-1.723 1.066-2.981 1.066-1.257 0-2.26-.355-3.007-1.066-.73-.71-1.094-1.595-1.094-2.652Zm29.129 7.738v5.195h-16.953v-5.195h16.953Zm-12.414-7.273h7.246v28.328c0 .875.118 1.55.355 2.023.237.474.593.793 1.067.957.474.164 1.039.246 1.695.246.474 0 .911-.027 1.312-.082.401-.054.739-.11 1.012-.164l.027 5.414c-.601.201-1.285.365-2.05.492-.748.128-1.595.192-2.543.192-1.623 0-3.045-.274-4.266-.82-1.221-.566-2.169-1.468-2.844-2.707-.674-1.258-1.011-2.917-1.011-4.977V66.641Zm24.808-5.141v42h-7.246v-42h7.246Zm-1.148 26.14h-2.133c0-2.06.273-3.955.82-5.687.547-1.732 1.322-3.236 2.325-4.512 1.002-1.294 2.196-2.297 3.582-3.007 1.403-.711 2.953-1.067 4.648-1.067 1.458 0 2.78.21 3.965.63a7.5 7.5 0 0 1 3.09 1.94c.856.894 1.513 2.06 1.968 3.5.474 1.422.711 3.154.711 5.196V103.5h-7.273V84.578c0-1.367-.201-2.443-.602-3.226-.401-.803-.975-1.377-1.722-1.723-.729-.346-1.632-.52-2.707-.52-1.167 0-2.17.228-3.008.684a5.733 5.733 0 0 0-2.078 1.832c-.529.784-.93 1.686-1.203 2.707a13.576 13.576 0 0 0-.383 3.309Zm64.137 2.762h7.519c-.2 2.662-.939 5.022-2.215 7.082-1.276 2.042-3.053 3.646-5.332 4.813-2.278 1.167-5.04 1.75-8.285 1.75-2.497 0-4.749-.438-6.754-1.313a14.615 14.615 0 0 1-5.113-3.8c-1.404-1.66-2.479-3.646-3.227-5.961-.747-2.334-1.121-4.95-1.121-7.848V82.09c0-2.899.383-5.514 1.149-7.848.765-2.333 1.859-4.32 3.281-5.96a14.67 14.67 0 0 1 5.168-3.829c2.023-.893 4.284-1.34 6.781-1.34 3.245 0 5.988.602 8.231 1.805 2.242 1.185 3.983 2.816 5.222 4.894 1.24 2.079 1.987 4.467 2.242 7.165h-7.519c-.146-1.678-.511-3.1-1.094-4.266a5.752 5.752 0 0 0-2.57-2.652c-1.13-.62-2.634-.93-4.512-.93-1.458 0-2.743.273-3.855.82-1.094.547-2.006 1.367-2.735 2.461-.729 1.076-1.276 2.425-1.64 4.047-.365 1.604-.547 3.464-.547 5.578v3.09c0 2.023.164 3.837.492 5.441.328 1.605.838 2.963 1.531 4.075s1.586 1.96 2.68 2.543c1.094.583 2.397.875 3.91.875 1.841 0 3.336-.292 4.484-.875a5.934 5.934 0 0 0 2.653-2.57c.62-1.13 1.011-2.535 1.176-4.212Zm29.593 6.809V83.566c0-1.002-.173-1.868-.519-2.597a3.759 3.759 0 0 0-1.586-1.696c-.711-.4-1.613-.601-2.707-.601-.966 0-1.814.164-2.543.492-.711.328-1.258.793-1.641 1.395-.383.583-.574 1.257-.574 2.023h-7.246c0-1.221.292-2.379.875-3.473.583-1.112 1.413-2.096 2.488-2.953 1.094-.875 2.397-1.558 3.91-2.05 1.532-.493 3.245-.739 5.141-.739 2.242 0 4.238.383 5.988 1.149 1.768.747 3.154 1.877 4.156 3.39 1.021 1.513 1.532 3.418 1.532 5.715v12.906c0 1.477.091 2.744.273 3.801.201 1.039.492 1.942.875 2.707v.465h-7.355c-.347-.747-.611-1.695-.793-2.844a22.204 22.204 0 0 1-.274-3.445Zm1.012-11.73.055 4.292h-4.567c-1.13 0-2.123.119-2.98.356-.857.219-1.559.547-2.106.984-.547.42-.957.93-1.23 1.531-.274.584-.41 1.25-.41 1.997 0 .729.164 1.385.492 1.968a3.755 3.755 0 0 0 1.476 1.395c.657.328 1.422.492 2.297.492 1.276 0 2.388-.255 3.336-.765.948-.53 1.686-1.167 2.215-1.915.529-.747.811-1.458.848-2.132l2.078 3.117c-.255.747-.638 1.54-1.149 2.379a10.705 10.705 0 0 1-1.968 2.351c-.802.729-1.769 1.331-2.899 1.805-1.13.474-2.442.711-3.937.711-1.914 0-3.628-.383-5.141-1.149-1.513-.765-2.707-1.813-3.582-3.144-.875-1.33-1.312-2.844-1.312-4.54 0-1.567.291-2.952.875-4.155.583-1.203 1.449-2.215 2.597-3.036 1.149-.838 2.571-1.467 4.266-1.886 1.713-.438 3.673-.656 5.879-.656h4.867Zm31.016 11.73V61.5h7.273v42h-6.562l-.711-6.29Zm-19.004-8.148v-.575c0-2.26.255-4.31.765-6.152.529-1.86 1.295-3.454 2.297-4.785 1.003-1.33 2.215-2.36 3.637-3.09 1.44-.73 3.072-1.094 4.894-1.094 1.769 0 3.309.356 4.622 1.067 1.33.71 2.461 1.722 3.39 3.035.948 1.312 1.705 2.87 2.27 4.675.565 1.787.975 3.756 1.23 5.907v1.558c-.255 2.097-.665 4.02-1.23 5.77s-1.322 3.281-2.27 4.594c-.929 1.294-2.06 2.297-3.39 3.007-1.331.711-2.89 1.067-4.676 1.067-1.805 0-3.427-.374-4.867-1.121-1.422-.748-2.635-1.796-3.637-3.145-.985-1.349-1.741-2.935-2.27-4.758-.51-1.822-.765-3.81-.765-5.96Zm7.246-.575v.575c0 1.275.109 2.47.328 3.581.219 1.112.574 2.097 1.066 2.954.493.838 1.121 1.494 1.887 1.968.784.474 1.732.711 2.844.711 1.422 0 2.588-.31 3.5-.93.929-.637 1.65-1.503 2.16-2.597.51-1.112.839-2.36.984-3.746V86.71a12.117 12.117 0 0 0-.574-3.035c-.292-.93-.711-1.732-1.258-2.407a5.574 5.574 0 0 0-1.968-1.585c-.784-.383-1.714-.575-2.789-.575-1.112 0-2.06.247-2.844.739-.784.474-1.422 1.139-1.914 1.996s-.857 1.85-1.094 2.98a19.27 19.27 0 0 0-.328 3.664Zm39.355 15.559c-2.242 0-4.256-.365-6.043-1.094-1.786-.729-3.308-1.741-4.566-3.035a13.94 13.94 0 0 1-2.871-4.566c-.656-1.75-.985-3.628-.985-5.633v-1.094c0-2.279.329-4.348.985-6.207.656-1.878 1.586-3.49 2.789-4.84a12.276 12.276 0 0 1 4.32-3.117c1.677-.73 3.528-1.094 5.551-1.094 2.096 0 3.947.356 5.551 1.067 1.604.692 2.944 1.677 4.019 2.953 1.076 1.276 1.887 2.807 2.434 4.594.547 1.768.82 3.727.82 5.878v3.035H620.68v-4.976h16.078v-.547c-.037-1.148-.255-2.197-.656-3.144a5.023 5.023 0 0 0-1.86-2.297c-.838-.584-1.923-.875-3.254-.875-1.075 0-2.014.237-2.816.71-.784.456-1.44 1.113-1.969 1.97-.51.838-.893 1.84-1.148 3.007-.256 1.167-.383 2.461-.383 3.883v1.094c0 1.24.164 2.388.492 3.445.346 1.057.848 1.978 1.504 2.762a7.335 7.335 0 0 0 2.406 1.805c.948.419 2.024.628 3.227.628 1.513 0 2.88-.291 4.101-.875 1.24-.601 2.315-1.485 3.227-2.652l3.637 3.774c-.62.91-1.459 1.786-2.516 2.624-1.039.839-2.297 1.523-3.773 2.051-1.477.511-3.181.766-5.114.766Zm31.344-30.133v5.195h-16.953v-5.195h16.953Zm-12.414-7.273h7.246v28.328c0 .875.119 1.55.356 2.023.237.474.592.793 1.066.957.474.164 1.039.246 1.695.246a9.75 9.75 0 0 0 1.313-.082c.401-.054.738-.11 1.011-.164l.028 5.414c-.602.201-1.285.365-2.051.492-.747.128-1.595.192-2.543.192-1.622 0-3.044-.274-4.266-.82-1.221-.566-2.169-1.468-2.843-2.707-.675-1.258-1.012-2.917-1.012-4.977V66.641Zm25.246 13.753h4.074c1.44 0 2.625-.246 3.555-.738.948-.51 1.65-1.203 2.105-2.078.474-.893.711-1.923.711-3.09 0-1.148-.209-2.142-.629-2.98a4.345 4.345 0 0 0-1.914-1.969c-.838-.474-1.914-.71-3.226-.71-1.057 0-2.033.209-2.926.628a5.193 5.193 0 0 0-2.105 1.805c-.511.765-.766 1.686-.766 2.761h-7.246c0-2.15.565-4.037 1.695-5.66 1.149-1.64 2.698-2.925 4.649-3.855 1.95-.93 4.129-1.395 6.535-1.395 2.625 0 4.922.438 6.89 1.313 1.987.857 3.528 2.123 4.621 3.8 1.112 1.678 1.668 3.756 1.668 6.235 0 1.185-.282 2.37-.847 3.555-.547 1.166-1.358 2.224-2.434 3.171-1.057.93-2.36 1.687-3.91 2.27-1.531.565-3.29.848-5.277.848h-5.223v-3.91Zm0 5.579v-3.856h5.223c2.242 0 4.183.264 5.824.793 1.659.51 3.026 1.24 4.102 2.188 1.075.93 1.868 2.014 2.378 3.254.529 1.24.793 2.57.793 3.992 0 1.86-.346 3.518-1.039 4.976a10.384 10.384 0 0 1-2.925 3.664c-1.24 1.003-2.698 1.769-4.375 2.297-1.678.511-3.491.766-5.442.766-1.695 0-3.345-.228-4.949-.684a14.06 14.06 0 0 1-4.293-2.105 10.39 10.39 0 0 1-3.035-3.555c-.748-1.44-1.121-3.108-1.121-5.004h7.246c0 1.094.264 2.07.793 2.926.547.857 1.294 1.531 2.242 2.023.966.474 2.051.711 3.254.711 1.331 0 2.47-.237 3.418-.71.966-.493 1.704-1.186 2.215-2.079.51-.911.765-1.996.765-3.254 0-1.494-.282-2.707-.847-3.636-.565-.93-1.377-1.614-2.434-2.051-1.039-.438-2.279-.656-3.719-.656h-4.074Zm44.688-22.614h.984v5.825h-.465c-2.206 0-4.147.337-5.824 1.011-1.659.675-3.044 1.623-4.156 2.844-1.094 1.203-1.924 2.634-2.489 4.293-.565 1.64-.847 3.436-.847 5.387v6.453c0 1.513.155 2.844.465 3.992.328 1.13.774 2.087 1.339 2.871.584.766 1.258 1.34 2.024 1.723.784.383 1.64.574 2.57.574.93 0 1.768-.191 2.516-.574a5.604 5.604 0 0 0 1.914-1.614c.547-.71.957-1.54 1.23-2.488.292-.948.438-1.987.438-3.117 0-1.112-.137-2.142-.41-3.09-.274-.948-.675-1.777-1.204-2.488a5.243 5.243 0 0 0-1.968-1.668c-.766-.401-1.641-.602-2.625-.602-1.276 0-2.416.301-3.418.903a6.682 6.682 0 0 0-2.379 2.297c-.583.947-.902 1.95-.957 3.007l-2.434-1.203c.091-1.55.42-2.971.985-4.265a11.325 11.325 0 0 1 2.324-3.39 10.357 10.357 0 0 1 3.472-2.243c1.349-.529 2.844-.793 4.485-.793 1.896 0 3.555.364 4.976 1.094a9.847 9.847 0 0 1 3.528 2.925c.948 1.24 1.659 2.671 2.133 4.293.474 1.605.711 3.3.711 5.086 0 1.914-.31 3.7-.93 5.36-.602 1.659-1.477 3.108-2.625 4.347-1.149 1.24-2.534 2.206-4.156 2.899-1.623.693-3.446 1.039-5.469 1.039-2.133 0-4.047-.401-5.742-1.203a12.872 12.872 0 0 1-4.321-3.336c-1.203-1.422-2.123-3.08-2.761-4.977-.638-1.896-.957-3.946-.957-6.152V85.48c0-3.118.428-6.016 1.285-8.696.857-2.68 2.123-5.022 3.801-7.027 1.695-2.024 3.791-3.591 6.289-4.703 2.497-1.13 5.386-1.696 8.668-1.696Zm19.558 21.82-5.769-1.394 2.214-20.097h21.903v5.988h-15.914l-1.039 9.297c.565-.347 1.385-.693 2.461-1.04 1.093-.364 2.324-.546 3.691-.546 1.896 0 3.591.31 5.086.93 1.495.601 2.762 1.476 3.801 2.624 1.057 1.149 1.85 2.552 2.379 4.211.547 1.641.82 3.5.82 5.579 0 1.822-.273 3.536-.82 5.14a12.14 12.14 0 0 1-2.434 4.238c-1.094 1.222-2.47 2.188-4.129 2.899-1.659.693-3.609 1.039-5.851 1.039a16.25 16.25 0 0 1-4.895-.738 13.766 13.766 0 0 1-4.184-2.215 11.23 11.23 0 0 1-2.98-3.61c-.729-1.421-1.13-3.053-1.203-4.894h7.137c.127 1.221.455 2.26.984 3.117a5.382 5.382 0 0 0 2.078 1.969c.875.456 1.887.683 3.035.683 1.039 0 1.933-.191 2.68-.574a5.198 5.198 0 0 0 1.887-1.668c.492-.71.856-1.55 1.093-2.515.237-.967.356-2.024.356-3.172 0-1.112-.137-2.124-.41-3.036-.274-.93-.693-1.731-1.258-2.406a5.584 5.584 0 0 0-2.133-1.558c-.838-.365-1.823-.547-2.953-.547-1.513 0-2.68.228-3.5.683a9.95 9.95 0 0 0-2.133 1.614Zm-493.648 88.985c0-.766-.119-1.449-.356-2.051-.219-.62-.629-1.175-1.23-1.668-.584-.51-1.413-1.002-2.489-1.476-1.057-.492-2.424-1.003-4.101-1.531a45.544 45.544 0 0 1-5.195-1.969c-1.605-.729-3.017-1.577-4.239-2.543-1.203-.966-2.142-2.078-2.816-3.336-.675-1.276-1.012-2.753-1.012-4.43 0-1.64.347-3.135 1.039-4.484.711-1.349 1.714-2.507 3.008-3.473 1.294-.984 2.816-1.741 4.566-2.269 1.769-.529 3.719-.793 5.852-.793 2.953 0 5.505.537 7.656 1.613 2.17 1.075 3.847 2.534 5.032 4.375 1.184 1.841 1.777 3.91 1.777 6.207h-7.492c0-1.24-.265-2.333-.793-3.281-.511-.948-1.295-1.696-2.352-2.243-1.039-.546-2.351-.82-3.937-.82-1.532 0-2.808.228-3.828.684-1.003.456-1.76 1.075-2.27 1.859a4.837 4.837 0 0 0-.738 2.625c0 .729.173 1.386.519 1.969.347.565.866 1.103 1.559 1.613.693.492 1.549.957 2.57 1.395 1.039.419 2.242.838 3.61 1.258 2.187.656 4.101 1.385 5.742 2.187 1.659.802 3.035 1.714 4.129 2.734 1.112 1.021 1.941 2.17 2.488 3.446.565 1.276.848 2.725.848 4.347 0 1.714-.338 3.245-1.012 4.594-.675 1.349-1.641 2.498-2.899 3.445-1.257.948-2.77 1.668-4.539 2.161-1.75.492-3.709.738-5.879.738-1.932 0-3.846-.255-5.742-.766-1.877-.528-3.582-1.312-5.113-2.351a12.004 12.004 0 0 1-3.664-3.992c-.912-1.623-1.367-3.519-1.367-5.688h7.547c0 1.258.2 2.333.601 3.227a5.808 5.808 0 0 0 1.75 2.16c.766.547 1.659.948 2.68 1.203 1.021.255 2.124.383 3.308.383 1.532 0 2.79-.21 3.774-.629 1.003-.438 1.75-1.039 2.242-1.805.511-.766.766-1.641.766-2.625Zm26.586 10.883c-2.243 0-4.257-.365-6.043-1.094-1.787-.729-3.309-1.741-4.567-3.035a13.984 13.984 0 0 1-2.871-4.566c-.656-1.75-.984-3.628-.984-5.633v-1.094c0-2.279.328-4.348.984-6.207.656-1.878 1.586-3.491 2.789-4.84a12.266 12.266 0 0 1 4.321-3.117c1.677-.729 3.527-1.094 5.55-1.094 2.097 0 3.947.356 5.551 1.067 1.604.692 2.944 1.677 4.02 2.953 1.075 1.276 1.886 2.807 2.433 4.593.547 1.769.821 3.728.821 5.879v3.036h-23.188v-4.977h16.078v-.547c-.036-1.148-.255-2.197-.656-3.144a5.023 5.023 0 0 0-1.859-2.297c-.839-.584-1.924-.875-3.254-.875-1.076 0-2.015.237-2.817.711-.784.455-1.44 1.112-1.969 1.968-.51.839-.893 1.842-1.148 3.008-.255 1.167-.383 2.461-.383 3.883v1.094c0 1.239.164 2.388.492 3.445.347 1.057.848 1.978 1.504 2.762a7.338 7.338 0 0 0 2.407 1.804c.948.42 2.023.629 3.226.629 1.513 0 2.88-.291 4.102-.875 1.239-.601 2.315-1.485 3.226-2.652l3.637 3.773c-.62.912-1.458 1.787-2.516 2.625-1.039.839-2.297 1.523-3.773 2.051-1.477.511-3.181.766-5.113.766Zm43.929-5.688c1.021 0 1.933-.2 2.735-.601a4.787 4.787 0 0 0 1.914-1.696c.492-.729.756-1.576.793-2.542h6.808c-.036 2.005-.601 3.8-1.695 5.386-1.094 1.586-2.552 2.844-4.375 3.774-1.805.911-3.828 1.367-6.07 1.367-2.279 0-4.266-.383-5.961-1.149-1.696-.765-3.108-1.832-4.239-3.199-1.111-1.367-1.95-2.953-2.515-4.758-.547-1.804-.82-3.737-.82-5.796v-.875c0-2.06.273-3.993.82-5.797.565-1.805 1.404-3.391 2.515-4.758 1.131-1.367 2.543-2.434 4.239-3.199 1.695-.766 3.673-1.149 5.933-1.149 2.388 0 4.485.465 6.289 1.395 1.823.929 3.245 2.242 4.266 3.937 1.039 1.696 1.577 3.692 1.613 5.989h-6.808c-.037-1.058-.274-2.006-.711-2.844a5.225 5.225 0 0 0-1.86-2.024c-.802-.51-1.777-.765-2.925-.765-1.222 0-2.243.255-3.063.765-.802.511-1.431 1.213-1.887 2.106-.437.875-.747 1.859-.929 2.953a22.485 22.485 0 0 0-.246 3.391v.875c0 1.203.082 2.351.246 3.445.182 1.094.492 2.078.929 2.953a5.387 5.387 0 0 0 1.887 2.051c.82.51 1.86.765 3.117.765Zm16.278-9.351v-.574c0-2.17.31-4.166.929-5.989.62-1.841 1.523-3.436 2.707-4.785 1.185-1.349 2.635-2.397 4.348-3.144 1.714-.766 3.664-1.149 5.852-1.149 2.224 0 4.192.383 5.906 1.149 1.732.747 3.19 1.795 4.375 3.144 1.185 1.349 2.087 2.944 2.707 4.785.62 1.823.93 3.819.93 5.989v.574c0 2.151-.31 4.147-.93 5.988-.62 1.823-1.522 3.418-2.707 4.785-1.185 1.349-2.634 2.397-4.348 3.145-1.713.747-3.673 1.121-5.879 1.121-2.187 0-4.147-.374-5.879-1.121-1.731-.748-3.19-1.796-4.375-3.145-1.184-1.367-2.087-2.962-2.707-4.785-.619-1.841-.929-3.837-.929-5.988Zm7.218-.574v.574c0 1.294.128 2.506.383 3.637.255 1.13.647 2.123 1.176 2.98a5.882 5.882 0 0 0 2.051 2.023c.857.474 1.877.711 3.062.711 1.167 0 2.17-.237 3.008-.711a5.882 5.882 0 0 0 2.051-2.023c.547-.857.948-1.85 1.203-2.98.255-1.131.383-2.343.383-3.637v-.574c0-1.276-.128-2.47-.383-3.582-.255-1.131-.656-2.124-1.203-2.981a5.743 5.743 0 0 0-2.078-2.051c-.839-.51-1.85-.765-3.035-.765-1.167 0-2.17.255-3.008.765a5.814 5.814 0 0 0-2.051 2.051c-.529.857-.921 1.85-1.176 2.981a16.001 16.001 0 0 0-.383 3.582Zm33.368-8.204v23.27h-7.219v-29.586h6.781l.438 6.316Zm-1.149 7.411h-2.133c.019-2.151.31-4.102.875-5.852s1.358-3.254 2.379-4.512a10.694 10.694 0 0 1 3.692-2.898c1.422-.675 3.008-1.012 4.758-1.012 1.421 0 2.707.201 3.855.602a7.272 7.272 0 0 1 2.953 1.914c.839.875 1.477 2.023 1.914 3.445.456 1.404.684 3.136.684 5.195V184.5h-7.274v-19.031c0-1.349-.2-2.416-.601-3.199-.383-.784-.948-1.34-1.696-1.668-.729-.329-1.631-.493-2.707-.493-1.112 0-2.087.228-2.925.684a6.047 6.047 0 0 0-2.079 1.832c-.546.784-.966 1.686-1.257 2.707-.292 1.021-.438 2.124-.438 3.309Zm32.93-7.411v23.27h-7.219v-29.586h6.781l.438 6.316Zm-1.149 7.411h-2.132c.018-2.151.31-4.102.875-5.852s1.358-3.254 2.379-4.512c1.039-1.257 2.269-2.224 3.691-2.898 1.422-.675 3.008-1.012 4.758-1.012 1.422 0 2.707.201 3.855.602a7.266 7.266 0 0 1 2.953 1.914c.839.875 1.477 2.023 1.914 3.445.456 1.404.684 3.136.684 5.195V184.5h-7.273v-19.031c0-1.349-.201-2.416-.602-3.199-.383-.784-.948-1.34-1.695-1.668-.729-.329-1.632-.493-2.707-.493-1.112 0-2.088.228-2.926.684a6.044 6.044 0 0 0-2.078 1.832c-.547.784-.966 1.686-1.258 2.707-.292 1.021-.438 2.124-.438 3.309Zm39.137 16.406c-2.242 0-4.256-.365-6.043-1.094-1.786-.729-3.308-1.741-4.566-3.035a13.951 13.951 0 0 1-2.871-4.566c-.657-1.75-.985-3.628-.985-5.633v-1.094c0-2.279.328-4.348.985-6.207.656-1.878 1.586-3.491 2.789-4.84a12.271 12.271 0 0 1 4.32-3.117c1.677-.729 3.527-1.094 5.551-1.094 2.096 0 3.946.356 5.551 1.067 1.604.692 2.944 1.677 4.019 2.953 1.076 1.276 1.887 2.807 2.434 4.593.547 1.769.82 3.728.82 5.879v3.036h-23.187v-4.977h16.078v-.547c-.037-1.148-.256-2.197-.657-3.144a5.016 5.016 0 0 0-1.859-2.297c-.838-.584-1.923-.875-3.254-.875-1.075 0-2.014.237-2.816.711-.784.455-1.44 1.112-1.969 1.968-.51.839-.893 1.842-1.148 3.008-.256 1.167-.383 2.461-.383 3.883v1.094c0 1.239.164 2.388.492 3.445.346 1.057.848 1.978 1.504 2.762a7.324 7.324 0 0 0 2.406 1.804c.948.42 2.024.629 3.227.629 1.513 0 2.88-.291 4.101-.875 1.24-.601 2.315-1.485 3.227-2.652l3.637 3.773c-.62.912-1.459 1.787-2.516 2.625-1.039.839-2.297 1.523-3.774 2.051-1.476.511-3.181.766-5.113.766Zm29.485-5.688c1.02 0 1.932-.2 2.734-.601a4.787 4.787 0 0 0 1.914-1.696c.492-.729.756-1.576.793-2.542h6.809c-.037 2.005-.602 3.8-1.696 5.386-1.094 1.586-2.552 2.844-4.375 3.774-1.804.911-3.828 1.367-6.07 1.367-2.279 0-4.266-.383-5.961-1.149-1.695-.765-3.108-1.832-4.238-3.199-1.112-1.367-1.951-2.953-2.516-4.758-.547-1.804-.82-3.737-.82-5.796v-.875c0-2.06.273-3.993.82-5.797.565-1.805 1.404-3.391 2.516-4.758 1.13-1.367 2.543-2.434 4.238-3.199 1.695-.766 3.673-1.149 5.934-1.149 2.388 0 4.484.465 6.289 1.395 1.823.929 3.244 2.242 4.265 3.937 1.039 1.696 1.577 3.692 1.614 5.989h-6.809c-.037-1.058-.273-2.006-.711-2.844a5.23 5.23 0 0 0-1.859-2.024c-.802-.51-1.778-.765-2.926-.765-1.222 0-2.242.255-3.063.765-.802.511-1.431 1.213-1.886 2.106-.438.875-.748 1.859-.93 2.953a22.485 22.485 0 0 0-.246 3.391v.875c0 1.203.082 2.351.246 3.445.182 1.094.492 2.078.93 2.953a5.377 5.377 0 0 0 1.886 2.051c.821.51 1.86.765 3.118.765Zm31.562-24.445v5.195h-16.953v-5.195h16.953Zm-12.414-7.273h7.246v28.328c0 .875.119 1.549.356 2.023.237.474.592.793 1.066.957.474.164 1.039.246 1.695.246.474 0 .912-.027 1.313-.082.401-.054.738-.109 1.011-.164l.028 5.414c-.602.201-1.285.365-2.051.492-.747.128-1.595.192-2.543.192-1.622 0-3.044-.274-4.266-.82-1.221-.566-2.169-1.468-2.843-2.707-.675-1.258-1.012-2.917-1.012-4.977v-28.902Zm31.016 37.406c-2.243 0-4.257-.365-6.043-1.094-1.787-.729-3.309-1.741-4.567-3.035a13.984 13.984 0 0 1-2.871-4.566c-.656-1.75-.984-3.628-.984-5.633v-1.094c0-2.279.328-4.348.984-6.207.656-1.878 1.586-3.491 2.789-4.84a12.271 12.271 0 0 1 4.32-3.117c1.678-.729 3.528-1.094 5.551-1.094 2.097 0 3.947.356 5.551 1.067 1.604.692 2.944 1.677 4.02 2.953 1.075 1.276 1.886 2.807 2.433 4.593.547 1.769.821 3.728.821 5.879v3.036H512.25v-4.977h16.078v-.547c-.036-1.148-.255-2.197-.656-3.144a5.018 5.018 0 0 0-1.86-2.297c-.838-.584-1.923-.875-3.253-.875-1.076 0-2.015.237-2.817.711-.784.455-1.44 1.112-1.969 1.968-.51.839-.893 1.842-1.148 3.008-.255 1.167-.383 2.461-.383 3.883v1.094c0 1.239.164 2.388.492 3.445.347 1.057.848 1.978 1.504 2.762a7.338 7.338 0 0 0 2.407 1.804c.947.42 2.023.629 3.226.629 1.513 0 2.88-.291 4.102-.875 1.239-.601 2.315-1.485 3.226-2.652l3.637 3.773c-.62.912-1.458 1.787-2.516 2.625-1.039.839-2.297 1.523-3.773 2.051-1.477.511-3.181.766-5.113.766Zm24.562-24.09V184.5h-7.219v-29.586h6.836l.383 6.043Zm8.996-6.234-.109 6.726a12.935 12.935 0 0 0-1.367-.164 19.207 19.207 0 0 0-1.395-.055c-1.112 0-2.087.155-2.926.465-.838.292-1.54.72-2.105 1.285-.547.566-.966 1.258-1.258 2.079-.292.802-.456 1.713-.492 2.734l-1.559-.191c0-1.878.192-3.619.574-5.223.383-1.604.939-3.008 1.668-4.211.73-1.203 1.641-2.133 2.735-2.789 1.112-.675 2.388-1.012 3.828-1.012.401 0 .829.037 1.285.11.474.054.848.136 1.121.246Zm35.207 23.488v-13.645c0-1.002-.173-1.868-.519-2.597a3.76 3.76 0 0 0-1.586-1.696c-.711-.401-1.614-.601-2.707-.601-.966 0-1.814.164-2.543.492-.711.328-1.258.793-1.641 1.395-.383.583-.574 1.257-.574 2.023h-7.246a7.27 7.27 0 0 1 .875-3.473c.583-1.112 1.413-2.096 2.488-2.953 1.094-.875 2.397-1.558 3.91-2.051 1.532-.492 3.245-.738 5.141-.738 2.242 0 4.238.383 5.988 1.149 1.768.747 3.154 1.877 4.156 3.39 1.021 1.513 1.532 3.418 1.532 5.715v12.906c0 1.477.091 2.744.273 3.801.201 1.039.492 1.942.875 2.707v.465h-7.355c-.347-.747-.611-1.695-.793-2.844a22.2 22.2 0 0 1-.274-3.445Zm1.012-11.731.055 4.293h-4.567c-1.13 0-2.123.119-2.98.356-.857.219-1.559.547-2.106.984-.547.42-.957.93-1.23 1.532-.274.583-.41 1.248-.41 1.996 0 .729.164 1.385.492 1.968a3.75 3.75 0 0 0 1.476 1.395c.657.328 1.422.492 2.297.492 1.276 0 2.388-.255 3.336-.766.948-.528 1.686-1.166 2.215-1.914.529-.747.811-1.458.848-2.132l2.078 3.117c-.255.747-.638 1.54-1.149 2.379a10.71 10.71 0 0 1-1.968 2.351c-.802.729-1.769 1.331-2.899 1.805-1.13.474-2.442.711-3.937.711-1.914 0-3.628-.383-5.141-1.149-1.513-.765-2.707-1.813-3.582-3.144-.875-1.331-1.312-2.844-1.312-4.539 0-1.568.291-2.953.875-4.156.583-1.204 1.449-2.215 2.597-3.036 1.149-.838 2.571-1.467 4.266-1.886 1.713-.438 3.673-.657 5.879-.657h4.867Zm22.648 12.551 6.891-24.117h7.547L620.152 184.5h-4.593l.3-5.469Zm-5.031-24.117 6.973 24.172.246 5.414h-4.621l-10.172-29.586h7.574Zm36.676 30.133c-2.242 0-4.257-.365-6.043-1.094-1.787-.729-3.309-1.741-4.566-3.035a13.97 13.97 0 0 1-2.872-4.566c-.656-1.75-.984-3.628-.984-5.633v-1.094c0-2.279.328-4.348.984-6.207.657-1.878 1.586-3.491 2.789-4.84a12.284 12.284 0 0 1 4.321-3.117c1.677-.729 3.527-1.094 5.551-1.094 2.096 0 3.946.356 5.55 1.067 1.605.692 2.944 1.677 4.02 2.953 1.075 1.276 1.887 2.807 2.434 4.593.546 1.769.82 3.728.82 5.879v3.036H636.32v-4.977h16.078v-.547c-.036-1.148-.255-2.197-.656-3.144a5.023 5.023 0 0 0-1.859-2.297c-.839-.584-1.923-.875-3.254-.875-1.076 0-2.014.237-2.817.711-.783.455-1.44 1.112-1.968 1.968-.511.839-.893 1.842-1.149 3.008-.255 1.167-.383 2.461-.383 3.883v1.094c0 1.239.165 2.388.493 3.445.346 1.057.847 1.978 1.504 2.762a7.324 7.324 0 0 0 2.406 1.804c.948.42 2.023.629 3.226.629 1.513 0 2.881-.291 4.102-.875 1.24-.601 2.315-1.485 3.227-2.652l3.636 3.773c-.62.912-1.458 1.787-2.515 2.625-1.039.839-2.297 1.523-3.774 2.051-1.476.511-3.181.766-5.113.766Zm29.484-5.688c1.021 0 1.933-.2 2.735-.601a4.787 4.787 0 0 0 1.914-1.696c.492-.729.756-1.576.793-2.542h6.808c-.036 2.005-.601 3.8-1.695 5.386-1.094 1.586-2.552 2.844-4.375 3.774-1.805.911-3.828 1.367-6.07 1.367-2.279 0-4.266-.383-5.961-1.149-1.696-.765-3.108-1.832-4.239-3.199-1.112-1.367-1.95-2.953-2.515-4.758-.547-1.804-.821-3.737-.821-5.796v-.875c0-2.06.274-3.993.821-5.797.565-1.805 1.403-3.391 2.515-4.758 1.131-1.367 2.543-2.434 4.239-3.199 1.695-.766 3.673-1.149 5.933-1.149 2.388 0 4.485.465 6.289 1.395 1.823.929 3.245 2.242 4.266 3.937 1.039 1.696 1.577 3.692 1.613 5.989h-6.808c-.037-1.058-.274-2.006-.711-2.844a5.233 5.233 0 0 0-1.86-2.024c-.802-.51-1.777-.765-2.925-.765-1.222 0-2.243.255-3.063.765-.802.511-1.431 1.213-1.887 2.106-.437.875-.747 1.859-.929 2.953a22.485 22.485 0 0 0-.246 3.391v.875c0 1.203.082 2.351.246 3.445.182 1.094.492 2.078.929 2.953a5.387 5.387 0 0 0 1.887 2.051c.82.51 1.859.765 3.117.765Zm55.852-7.957h7.519c-.2 2.662-.938 5.022-2.214 7.082-1.277 2.042-3.054 3.646-5.333 4.813-2.278 1.167-5.04 1.75-8.285 1.75-2.497 0-4.748-.438-6.754-1.313a14.62 14.62 0 0 1-5.113-3.8c-1.403-1.659-2.479-3.646-3.226-5.961-.748-2.334-1.122-4.95-1.122-7.848v-3.035c0-2.899.383-5.514 1.149-7.848.766-2.333 1.859-4.32 3.281-5.961a14.664 14.664 0 0 1 5.168-3.828c2.024-.893 4.284-1.34 6.781-1.34 3.245 0 5.989.602 8.231 1.805 2.242 1.185 3.983 2.816 5.223 4.894 1.239 2.079 1.987 4.467 2.242 7.165h-7.52c-.146-1.678-.51-3.099-1.094-4.266a5.742 5.742 0 0 0-2.57-2.652c-1.13-.62-2.634-.93-4.512-.93-1.458 0-2.743.273-3.855.82-1.094.547-2.005 1.367-2.734 2.461-.73 1.076-1.276 2.425-1.641 4.047-.365 1.604-.547 3.464-.547 5.578v3.09c0 2.023.164 3.837.492 5.441.328 1.605.839 2.963 1.532 4.075.692 1.112 1.585 1.959 2.679 2.543 1.094.583 2.397.875 3.91.875 1.841 0 3.336-.292 4.485-.875a5.943 5.943 0 0 0 2.652-2.571c.62-1.13 1.012-2.534 1.176-4.211Zm29.594 6.809v-13.645c0-1.002-.174-1.868-.52-2.597a3.755 3.755 0 0 0-1.586-1.696c-.711-.401-1.613-.601-2.707-.601-.966 0-1.814.164-2.543.492-.711.328-1.258.793-1.64 1.395-.383.583-.575 1.257-.575 2.023h-7.246c0-1.221.292-2.379.875-3.473.584-1.112 1.413-2.096 2.488-2.953 1.094-.875 2.398-1.558 3.911-2.051 1.531-.492 3.244-.738 5.14-.738 2.242 0 4.239.383 5.989 1.149 1.768.747 3.153 1.877 4.156 3.39 1.021 1.513 1.531 3.418 1.531 5.715v12.906c0 1.477.091 2.744.273 3.801.201 1.039.493 1.942.875 2.707v.465H763.5c-.346-.747-.611-1.695-.793-2.844a22.322 22.322 0 0 1-.273-3.445Zm1.011-11.731.055 4.293h-4.566c-1.131 0-2.124.119-2.981.356-.857.219-1.558.547-2.105.984a4 4 0 0 0-1.231 1.532c-.273.583-.41 1.248-.41 1.996 0 .729.164 1.385.492 1.968a3.759 3.759 0 0 0 1.477 1.395c.656.328 1.422.492 2.297.492 1.276 0 2.388-.255 3.336-.766.948-.528 1.686-1.166 2.214-1.914.529-.747.812-1.458.848-2.132l2.078 3.117c-.255.747-.638 1.54-1.148 2.379a10.744 10.744 0 0 1-1.969 2.351c-.802.729-1.768 1.331-2.898 1.805-1.131.474-2.443.711-3.938.711-1.914 0-3.628-.383-5.141-1.149-1.513-.765-2.707-1.813-3.582-3.144-.875-1.331-1.312-2.844-1.312-4.539 0-1.568.292-2.953.875-4.156.583-1.204 1.449-2.215 2.598-3.036 1.148-.838 2.57-1.467 4.265-1.886 1.714-.438 3.673-.657 5.879-.657h4.867Zm31.016 11.731V142.5h7.273v42h-6.562l-.711-6.289Zm-19.004-8.149v-.574c0-2.26.255-4.311.766-6.152.528-1.859 1.294-3.454 2.297-4.785 1.002-1.331 2.214-2.361 3.636-3.09 1.44-.729 3.072-1.094 4.895-1.094 1.768 0 3.308.356 4.621 1.067 1.331.711 2.461 1.722 3.39 3.035.948 1.312 1.705 2.871 2.27 4.676.565 1.786.975 3.755 1.23 5.906v1.558c-.255 2.097-.665 4.02-1.23 5.77s-1.322 3.281-2.27 4.594c-.929 1.294-2.059 2.297-3.39 3.007-1.331.711-2.889 1.067-4.676 1.067-1.805 0-3.427-.374-4.867-1.121-1.422-.748-2.634-1.796-3.637-3.145-.984-1.349-1.741-2.935-2.269-4.758-.511-1.822-.766-3.809-.766-5.961Zm7.246-.574v.574c0 1.277.109 2.471.328 3.583.219 1.112.574 2.096 1.067 2.953.492.838 1.121 1.494 1.886 1.968.784.474 1.732.711 2.844.711 1.422 0 2.589-.31 3.5-.929.93-.638 1.65-1.504 2.16-2.598.511-1.112.839-2.361.985-3.746v-4.293a12.107 12.107 0 0 0-.575-3.035c-.291-.93-.71-1.732-1.257-2.406a5.562 5.562 0 0 0-1.969-1.586c-.784-.383-1.714-.575-2.789-.575-1.112 0-2.06.246-2.844.739-.784.474-1.422 1.139-1.914 1.996s-.857 1.85-1.094 2.98a19.27 19.27 0 0 0-.328 3.664Zm39.356 15.559c-2.243 0-4.257-.365-6.043-1.094-1.787-.729-3.309-1.741-4.567-3.035a13.984 13.984 0 0 1-2.871-4.566c-.656-1.75-.984-3.628-.984-5.633v-1.094c0-2.279.328-4.348.984-6.207.656-1.878 1.586-3.491 2.789-4.84a12.266 12.266 0 0 1 4.321-3.117c1.677-.729 3.527-1.094 5.55-1.094 2.097 0 3.947.356 5.551 1.067 1.604.692 2.944 1.677 4.02 2.953 1.075 1.276 1.886 2.807 2.433 4.593.547 1.769.82 3.728.82 5.879v3.036h-23.187v-4.977h16.078v-.547c-.036-1.148-.255-2.197-.656-3.144a5.023 5.023 0 0 0-1.859-2.297c-.839-.584-1.924-.875-3.254-.875-1.076 0-2.015.237-2.817.711-.784.455-1.44 1.112-1.969 1.968-.51.839-.893 1.842-1.148 3.008-.255 1.167-.383 2.461-.383 3.883v1.094c0 1.239.164 2.388.492 3.445.347 1.057.848 1.978 1.504 2.762a7.338 7.338 0 0 0 2.407 1.804c.947.42 2.023.629 3.226.629 1.513 0 2.88-.291 4.102-.875 1.239-.601 2.315-1.485 3.226-2.652l3.637 3.773c-.62.912-1.458 1.787-2.516 2.625-1.039.839-2.297 1.523-3.773 2.051-1.477.511-3.181.766-5.113.766Zm31.343-30.133v5.195h-16.953v-5.195h16.953Zm-12.414-7.273h7.246v28.328c0 .875.119 1.549.356 2.023.237.474.592.793 1.066.957.474.164 1.039.246 1.696.246.474 0 .911-.027 1.312-.082.401-.054.738-.109 1.012-.164l.027 5.414c-.601.201-1.285.365-2.051.492-.747.128-1.595.192-2.543.192-1.622 0-3.044-.274-4.265-.82-1.222-.566-2.17-1.468-2.844-2.707-.674-1.258-1.012-2.917-1.012-4.977v-28.902Zm25.246 13.754h4.075c1.44 0 2.625-.247 3.554-.739.948-.51 1.65-1.203 2.106-2.078.474-.893.711-1.923.711-3.09 0-1.148-.21-2.142-.629-2.98a4.35 4.35 0 0 0-1.914-1.969c-.839-.474-1.914-.711-3.227-.711-1.057 0-2.032.21-2.926.629a5.196 5.196 0 0 0-2.105 1.805c-.511.765-.766 1.686-.766 2.761h-7.246c0-2.151.565-4.037 1.695-5.66 1.149-1.64 2.698-2.925 4.649-3.855 1.95-.93 4.129-1.395 6.535-1.395 2.625 0 4.922.438 6.891 1.313 1.987.857 3.527 2.123 4.621 3.801 1.112 1.677 1.668 3.755 1.668 6.234 0 1.185-.283 2.37-.848 3.555-.547 1.166-1.358 2.224-2.433 3.172-1.058.929-2.361 1.686-3.911 2.269-1.531.565-3.29.848-5.277.848h-5.223v-3.91Zm0 5.578v-3.856h5.223c2.242 0 4.184.265 5.824.793 1.659.511 3.026 1.24 4.102 2.188 1.075.929 1.868 2.014 2.379 3.254.528 1.239.793 2.57.793 3.992 0 1.859-.347 3.518-1.039 4.976a10.387 10.387 0 0 1-2.926 3.664c-1.24 1.003-2.698 1.769-4.375 2.297-1.677.511-3.491.766-5.442.766-1.695 0-3.345-.228-4.949-.684a14.06 14.06 0 0 1-4.293-2.105 10.39 10.39 0 0 1-3.035-3.555c-.747-1.44-1.121-3.108-1.121-5.004h7.246c0 1.094.264 2.069.793 2.926.547.857 1.294 1.531 2.242 2.023.966.474 2.051.711 3.254.711 1.331 0 2.47-.237 3.418-.711.966-.492 1.705-1.184 2.215-2.078.51-.911.766-1.996.766-3.254 0-1.494-.283-2.707-.848-3.636-.565-.93-1.376-1.614-2.434-2.051-1.039-.438-2.278-.656-3.718-.656h-4.075Zm44.688-22.614h.984v5.825h-.465c-2.205 0-4.147.337-5.824 1.011-1.659.675-3.044 1.623-4.156 2.844-1.094 1.203-1.923 2.634-2.488 4.293-.565 1.641-.848 3.436-.848 5.387v6.453c0 1.513.155 2.844.465 3.992.328 1.13.775 2.087 1.34 2.871.583.766 1.258 1.34 2.023 1.723a5.776 5.776 0 0 0 2.57.574c.93 0 1.769-.191 2.516-.574a5.613 5.613 0 0 0 1.914-1.613c.547-.711.957-1.541 1.231-2.489.291-.948.437-1.987.437-3.117 0-1.112-.137-2.142-.41-3.09-.273-.948-.675-1.777-1.203-2.488a5.256 5.256 0 0 0-1.969-1.668c-.766-.401-1.641-.602-2.625-.602-1.276 0-2.415.301-3.418.903a6.688 6.688 0 0 0-2.379 2.297c-.583.948-.902 1.95-.957 3.007l-2.433-1.203c.091-1.549.419-2.971.984-4.265a11.317 11.317 0 0 1 2.324-3.391 10.37 10.37 0 0 1 3.473-2.242c1.349-.529 2.844-.793 4.484-.793 1.896 0 3.555.364 4.977 1.094a9.848 9.848 0 0 1 3.527 2.925c.948 1.24 1.659 2.671 2.133 4.293.474 1.605.711 3.3.711 5.086 0 1.914-.31 3.701-.93 5.36-.601 1.659-1.476 3.108-2.625 4.347-1.148 1.24-2.534 2.206-4.156 2.899-1.622.693-3.445 1.039-5.469 1.039-2.133 0-4.047-.401-5.742-1.203a12.87 12.87 0 0 1-4.32-3.336c-1.203-1.422-2.124-3.081-2.762-4.977-.638-1.896-.957-3.946-.957-6.152v-2.899c0-3.117.428-6.015 1.285-8.695.857-2.68 2.124-5.022 3.801-7.027 1.695-2.024 3.792-3.591 6.289-4.703 2.497-1.131 5.387-1.696 8.668-1.696Zm19.558 21.821-5.769-1.395 2.215-20.097h21.902v5.988h-15.914l-1.039 9.297c.565-.347 1.385-.693 2.461-1.039 1.094-.365 2.324-.547 3.691-.547 1.896 0 3.591.31 5.086.929 1.495.602 2.762 1.477 3.801 2.625 1.057 1.149 1.85 2.552 2.379 4.211.547 1.641.82 3.5.82 5.578 0 1.823-.273 3.537-.82 5.141a12.137 12.137 0 0 1-2.434 4.238c-1.093 1.222-2.47 2.188-4.129 2.899-1.658.693-3.609 1.039-5.851 1.039-1.695 0-3.327-.246-4.895-.738a13.75 13.75 0 0 1-4.183-2.215 11.233 11.233 0 0 1-2.981-3.61c-.729-1.422-1.13-3.053-1.203-4.894h7.137c.128 1.221.456 2.26.984 3.117a5.39 5.39 0 0 0 2.078 1.969c.875.456 1.887.683 3.036.683 1.039 0 1.932-.191 2.679-.574a5.188 5.188 0 0 0 1.887-1.668c.492-.711.857-1.549 1.094-2.515.237-.967.355-2.024.355-3.172 0-1.112-.137-2.124-.41-3.035-.273-.93-.693-1.732-1.258-2.407a5.582 5.582 0 0 0-2.133-1.558c-.838-.365-1.823-.547-2.953-.547-1.513 0-2.679.228-3.5.683a9.956 9.956 0 0 0-2.133 1.614Z" fill="#FFD100"/>
  </g>
  <defs>
    <filter id="a" x="0" y="0" width="1008" height="258" filterUnits="userSpaceOnUse" color-interpolation-filters="sRGB">
      <feFlood flood-opacity="0" result="BackgroundImageFix"/>
      <feColorMatrix in="SourceAlpha" values="0 0 0 0 0 0 0 0 0 0 0 0 0 0 0 0 0 0 127 0" result="hardAlpha"/>
      <feOffset dy="4"/>
      <feGaussianBlur stdDeviation="2"/>
      <feComposite in2="hardAlpha" operator="out"/>
      <feColorMatrix values="0 0 0 0 0 0 0 0 0 0 0 0 0 0 0 0 0 0 0.25 0"/>
      <feBlend in2="BackgroundImageFix" result="effect1_dropShadow_101_211"/>
      <feBlend in="SourceGraphic" in2="effect1_dropShadow_101_211" result="shape"/>
    </filter>
  </defs>
</svg>
